<svg aria-hidden="true" style="position: absolute; width: 0; height: 0; overflow: hidden;" version="1.1" xmlns="http://www.w3.org/2000/svg" xmlns:xlink="http://www.w3.org/1999/xlink">
<defs>
<symbol id="icon-wt_input_success-filled-2" viewBox="0 0 32 32">
<path fill="#00b068" style="fill: var(--color1, #00b068)" d="M16 2c3.713 0 7.274 1.475 9.899 4.1s4.101 6.186 4.101 9.9-1.475 7.274-4.101 9.899c-2.625 2.626-6.186 4.101-9.899 4.101s-7.274-1.475-9.9-4.101c-2.626-2.625-4.1-6.186-4.1-9.899s1.475-7.274 4.1-9.9c2.626-2.626 6.186-4.1 9.9-4.1zM14.256 18.762l-3.11-3.112c-0.111-0.111-0.244-0.2-0.39-0.26s-0.302-0.091-0.459-0.091-0.314 0.031-0.459 0.091c-0.146 0.060-0.278 0.149-0.39 0.26-0.225 0.225-0.352 0.531-0.352 0.849s0.127 0.624 0.352 0.849l3.96 3.96c0.111 0.112 0.243 0.201 0.389 0.262s0.302 0.092 0.46 0.092 0.314-0.031 0.46-0.092c0.146-0.061 0.278-0.15 0.389-0.262l8.2-8.202c0.113-0.111 0.203-0.243 0.264-0.389s0.094-0.303 0.094-0.461c0.001-0.158-0.030-0.315-0.090-0.462s-0.149-0.28-0.261-0.392c-0.112-0.112-0.245-0.201-0.391-0.261s-0.303-0.091-0.462-0.091-0.315 0.032-0.461 0.094-0.278 0.151-0.39 0.264l-7.354 7.354z"></path>
</symbol>
<symbol id="icon-wt-close-btn_x" viewBox="0 0 32 32">
<path stroke-linejoin="round" stroke-linecap="round" stroke-miterlimit="4" stroke-width="2.6667" d="M24 8l-16 16"></path>
<path stroke-linejoin="round" stroke-linecap="round" stroke-miterlimit="4" stroke-width="2.6667" d="M8 8l16 16"></path>
</symbol>
<symbol id="icon-wt_icon_1-1" viewBox="0 0 32 32">
<path fill="none" stroke="#00b068" style="stroke: var(--color1, #00b068)" stroke-linejoin="round" stroke-linecap="round" stroke-miterlimit="4" stroke-width="1.3333" d="M3 9c0 11.045 8.955 20 20 20h3c1.657 0 3-1.343 3-3v0-1.829c0-0.688-0.468-1.288-1.136-1.455l-5.897-1.475c-0.587-0.147-1.203 0.073-1.564 0.556l-1.293 1.724c-0.376 0.501-1.025 0.723-1.613 0.507-4.43-1.661-7.863-5.094-9.488-9.413l-0.036-0.111c-0.216-0.588 0.005-1.237 0.507-1.613l1.724-1.293c0.484-0.361 0.703-0.979 0.556-1.564l-1.475-5.897c-0.169-0.657-0.756-1.136-1.455-1.136h-1.829c-1.657 0-3 1.343-3 3v0 3z"></path>
</symbol>
<symbol id="icon-wt_icon_3-2" viewBox="0 0 32 32">
<path fill="none" stroke="#00b068" style="stroke: var(--color1, #00b068)" stroke-linejoin="round" stroke-linecap="round" stroke-miterlimit="4" stroke-width="1.3333" d="M20 14c0 1.061-0.421 2.078-1.172 2.828s-1.768 1.172-2.828 1.172-2.078-0.421-2.828-1.172c-0.75-0.75-1.172-1.768-1.172-2.828s0.421-2.078 1.172-2.828 1.768-1.172 2.828-1.172 2.078 0.421 2.828 1.172 1.172 1.768 1.172 2.828v0z"></path>
<path fill="none" stroke="#00b068" style="stroke: var(--color1, #00b068)" stroke-linejoin="round" stroke-linecap="round" stroke-miterlimit="4" stroke-width="1.3333" d="M26 14c0 9.523-10 15-10 15s-10-5.477-10-15c0-2.652 1.054-5.196 2.929-7.071s4.419-2.929 7.071-2.929 5.196 1.054 7.071 2.929 2.929 4.419 2.929 7.071v0z"></path>
</symbol>
<symbol id="icon-wt_icon_2-2" viewBox="0 0 32 32">
<path fill="none" stroke="#00b068" style="stroke: var(--color1, #00b068)" stroke-linejoin="round" stroke-linecap="round" stroke-miterlimit="4" stroke-width="1.3333" d="M29 9v14c0 0.796-0.316 1.559-0.879 2.121s-1.326 0.879-2.121 0.879h-20c-0.796 0-1.559-0.316-2.121-0.879s-0.879-1.326-0.879-2.121v-14M29 9c0-0.796-0.316-1.559-0.879-2.121s-1.326-0.879-2.121-0.879h-20c-0.796 0-1.559 0.316-2.121 0.879s-0.879 1.326-0.879 2.121M29 9v0.324c0 0.512-0.131 1.016-0.381 1.463s-0.61 0.823-1.046 1.092l-10 6.153c-0.473 0.291-1.018 0.446-1.573 0.446s-1.1-0.154-1.573-0.446l-10-6.152c-0.436-0.269-0.796-0.644-1.046-1.092s-0.381-0.951-0.381-1.463v-0.325"></path>
</symbol>
</defs>
</svg>
